<?xml version="1.0" encoding="UTF-8" standalone="no"?>
<svg
   clip-rule="evenodd"
   fill-rule="evenodd"
   height="512"
   stroke-linejoin="round"
   stroke-miterlimit="2"
   viewBox="0 0 24 24"
   width="512"
   version="1.1"
   id="svg6"
   sodipodi:docname="github-branch-primary.svg"
   inkscape:version="1.3.2 (091e20e, 2023-11-25)"
   xmlns:inkscape="http://www.inkscape.org/namespaces/inkscape"
   xmlns:sodipodi="http://sodipodi.sourceforge.net/DTD/sodipodi-0.dtd"
   xmlns="http://www.w3.org/2000/svg"
   xmlns:svg="http://www.w3.org/2000/svg">
  <defs
     id="defs10" />
  <sodipodi:namedview
     id="namedview8"
     pagecolor="#ffffff"
     bordercolor="#000000"
     borderopacity="0.25"
     inkscape:showpageshadow="2"
     inkscape:pageopacity="0.0"
     inkscape:pagecheckerboard="0"
     inkscape:deskcolor="#d1d1d1"
     showgrid="false"
     inkscape:zoom="2.0566406"
     inkscape:cx="175.28585"
     inkscape:cy="256"
     inkscape:window-width="1392"
     inkscape:window-height="916"
     inkscape:window-x="1730"
     inkscape:window-y="145"
     inkscape:window-maximized="0"
     inkscape:current-layer="svg6" />
  <g
     transform="translate(-152 -64)"
     id="g4"
     style="fill:#052c65;fill-opacity:1">
    <path
       d="m159 71.829v8.342c-1.165.412-2 1.524-2 2.829 0 1.656 1.344 3 3 3s3-1.344 3-3c0-1.305-.835-2.417-2-2.829v-1.171h4c2.209 0 4-1.791 4-4v-1.171c1.165-.412 2-1.524 2-2.829 0-1.656-1.344-3-3-3s-3 1.344-3 3c0 1.305.835 2.417 2 2.829v1.171c0 1.105-.895 2-2 2h-4v-5.171c1.165-.412 2-1.524 2-2.829 0-1.656-1.344-3-3-3s-3 1.344-3 3c0 1.305.835 2.417 2 2.829zm1 10.171c.552 0 1 .448 1 1s-.448 1-1 1-1-.448-1-1 .448-1 1-1zm8-12c.552 0 1 .448 1 1s-.448 1-1 1-1-.448-1-1 .448-1 1-1zm-8-2c.552 0 1 .448 1 1s-.448 1-1 1-1-.448-1-1 .448-1 1-1z"
       id="path2"
       style="fill:#052c65;fill-opacity:1" />
  </g>
</svg>
