<?xml version="1.0" encoding="UTF-8" standalone="no"?>
<svg
   version="1.1"
   viewBox="0 0 256 256"
   id="svg3"
   sodipodi:docname="popcorn.svg"
   width="256"
   height="256"
   inkscape:version="1.3 (0e150ed, 2023-07-21)"
   xmlns:inkscape="http://www.inkscape.org/namespaces/inkscape"
   xmlns:sodipodi="http://sodipodi.sourceforge.net/DTD/sodipodi-0.dtd"
   xmlns="http://www.w3.org/2000/svg"
   xmlns:svg="http://www.w3.org/2000/svg">
  <defs
     id="defs3" />
  <sodipodi:namedview
     id="namedview3"
     pagecolor="#ffffff"
     bordercolor="#000000"
     borderopacity="0.25"
     inkscape:showpageshadow="2"
     inkscape:pageopacity="0.0"
     inkscape:pagecheckerboard="0"
     inkscape:deskcolor="#d1d1d1"
     showgrid="false"
     inkscape:zoom="0.95265164"
     inkscape:cx="230.93436"
     inkscape:cy="290.76736"
     inkscape:window-width="1920"
     inkscape:window-height="1147"
     inkscape:window-x="0"
     inkscape:window-y="25"
     inkscape:window-maximized="1"
     inkscape:current-layer="svg3" />
  <path
     fill="#000000"
     d="M 66.333059,166.3794 Q 34.424987,160.37087 16.69828,134.595 C 3.4753934,115.36358 0.91944971,90.216395 8.8037108,68.676385 22.418235,31.460607 61.695258,12.579603 99.735535,23.339302 q 11.429595,3.225848 20.715505,9.904282 a 0.46378012,0.45347389 37.1 0 0 0.61837,-0.08245 c 17.91222,-21.632765 45.59474,-31.506129 73.21542,-25.363619 45.6875,10.172244 70.62856,60.920095 50.09856,103.175615 q -11.57389,23.81769 -36.15424,35.52556 -0.49469,0.23704 -0.27826,0.74205 7.91518,18.67488 5.98791,36.2573 -3.24646,29.54794 -25.52852,48.70722 c -29.55825,25.42545 -74.53461,23.3436 -101.650284,-4.56566 Q 67.322456,207.64552 65.900197,178.75717 c -0.195818,-3.87514 0.659599,-7.69875 1.071848,-11.52236 q 0.07214,-0.72143 -0.638986,-0.85541 z M 128.54142,79.817414 c -0.0721,6.132204 -4.41106,10.780312 -10.62571,10.708168 Q 106.8159,90.401907 106.60978,79.06506 q -0.24735,-13.903097 4.08126,-25.19872 0.22674,-0.587455 -0.29888,-0.948173 C 95.994374,43.116947 80.112481,39.355175 63.787421,44.61135 Q 43.710895,51.063047 33.806613,69.068022 c -18.314162,33.309718 4.627495,74.338798 42.410115,76.410348 9.33744,0.51532 21.055618,-1.22644 28.671912,-6.55475 14.68637,-10.27531 26.03352,10.49173 13.73819,17.53088 -7.59568,4.34923 -17.54119,8.63662 -26.796171,9.89398 a 1.1130723,1.1130723 0 0 0 -0.937866,0.86572 q -0.979092,4.70995 -0.824498,9.76 c 0.772967,25.86862 18.788235,46.67689 44.399205,50.51081 10.16194,1.51501 21.77706,-0.39164 30.50643,-5.2974 q 23.20962,-13.02707 27.83711,-39.00907 c 1.73145,-9.70846 -0.74205,-20.17958 -4.72025,-29.36243 q -0.26796,-0.61837 -0.94817,-0.60807 -3.46289,0.0824 -7.21436,0.0309 c -14.01647,-0.21643 -14.25351,-21.05562 -0.92756,-21.82858 q 2.07155,-0.12368 4.17402,-0.23705 c 23.92075,-1.3295 43.34798,-18.75733 47.77966,-42.059701 4.23586,-22.282058 -6.462,-43.883905 -26.02322,-54.81881 -15.11923,-8.451104 -34.4434,-8.420186 -49.85121,0.216431 -16.60333,9.296215 -26.28087,26.115974 -26.53853,45.306164 z"
     id="path1"
     style="stroke-width:1.03062;fill:#ffffff;fill-opacity:1" />
</svg>
