<?xml version="1.0" encoding="UTF-8" standalone="no"?>
<!-- Created with Inkscape (http://www.inkscape.org/) -->

<svg
   width="80mm"
   height="80mm"
   viewBox="0 0 80 80"
   version="1.1"
   id="svg5"
   inkscape:version="1.2 (dc2aeda, 2022-05-15)"
   sodipodi:docname="landing_icon.svg"
   xml:space="preserve"
   xmlns:inkscape="http://www.inkscape.org/namespaces/inkscape"
   xmlns:sodipodi="http://sodipodi.sourceforge.net/DTD/sodipodi-0.dtd"
   xmlns="http://www.w3.org/2000/svg"
   xmlns:svg="http://www.w3.org/2000/svg"><sodipodi:namedview
     id="namedview7"
     pagecolor="#dfdfdf"
     bordercolor="#666666"
     borderopacity="1.0"
     inkscape:pageshadow="2"
     inkscape:pageopacity="0"
     inkscape:pagecheckerboard="0"
     inkscape:document-units="mm"
     showgrid="false"
     inkscape:zoom="1.7436996"
     inkscape:cx="132.76369"
     inkscape:cy="192.40699"
     inkscape:window-width="1280"
     inkscape:window-height="1387"
     inkscape:window-x="1280"
     inkscape:window-y="846"
     inkscape:window-maximized="0"
     inkscape:current-layer="layer1"
     inkscape:snap-global="false"
     inkscape:showpageshadow="2"
     inkscape:deskcolor="#191919" /><defs
     id="defs2"><filter
       style="color-interpolation-filters:sRGB"
       inkscape:label="Drop Shadow"
       id="filter4720"><feFlood
         flood-opacity="0.498039"
         flood-color="rgb(0,0,0)"
         result="flood"
         id="feFlood4722" /><feComposite
         in="flood"
         in2="SourceGraphic"
         operator="out"
         result="composite1"
         id="feComposite4724" /><feGaussianBlur
         in="composite1"
         stdDeviation="2"
         result="blur"
         id="feGaussianBlur4726" /><feOffset
         dx="-2"
         dy="-2"
         result="offset"
         id="feOffset4728" /><feComposite
         in="offset"
         in2="SourceGraphic"
         operator="atop"
         result="composite2"
         id="feComposite4730" /></filter></defs><g
     inkscape:label="Layer 1"
     inkscape:groupmode="layer"
     id="layer1"><g
       id="g1768"
       transform="matrix(1.7949691,0,0,1.7949691,-27.135218,-11.341666)" /><text
       xml:space="preserve"
       style="font-size:3.02984px;line-height:1.25;font-family:arial;-inkscape-font-specification:'arial, Normal';text-decoration:none;text-decoration-line:none;text-decoration-color:#000000;letter-spacing:0px;word-spacing:0px;writing-mode:lr-tb;fill:#000000;stroke-width:0.227237"
       x="6.6405263"
       y="39.766823"
       id="text184"><tspan
         sodipodi:role="line"
         id="tspan182"
         style="font-size:3.02984px;stroke-width:0.227237"
         x="6.6405263"
         y="39.766823">Consume</tspan></text><g
       id="g1297"
       transform="matrix(1.4999358,0,0,1.4999358,-20.369183,-24.767141)"
       style="stroke-width:0.666695"><g
         transform="matrix(0.33106838,0,0,0.33106838,-65.147559,-140.01693)"
         id="g82"
         style="fill:#000000;stroke-width:0.666695"><circle
           style="color:#000000;clip-rule:nonzero;display:inline;overflow:visible;visibility:visible;opacity:1;isolation:auto;mix-blend-mode:normal;color-interpolation:sRGB;color-interpolation-filters:linearRGB;solid-color:#000000;solid-opacity:1;fill:#000000;fill-opacity:1;fill-rule:nonzero;stroke:none;stroke-width:1.33339;stroke-linecap:butt;stroke-linejoin:miter;stroke-miterlimit:4;stroke-dasharray:4.00017, 1.33339;stroke-dashoffset:0;stroke-opacity:1;marker:none;color-rendering:auto;image-rendering:auto;shape-rendering:auto;text-rendering:auto;enable-background:accumulate"
           id="circle80"
           cx="329.58148"
           cy="545.21082"
           r="2.9017856" /></g><ellipse
         style="color:#000000;clip-rule:nonzero;display:inline;overflow:visible;visibility:visible;isolation:auto;mix-blend-mode:normal;color-interpolation:sRGB;color-interpolation-filters:linearRGB;solid-color:#000000;solid-opacity:1;fill:#000000;fill-opacity:1;fill-rule:nonzero;stroke:none;stroke-width:0.433581;stroke-linecap:butt;stroke-linejoin:miter;stroke-miterlimit:4;stroke-dasharray:1.30074, 0.433581;stroke-dashoffset:0;stroke-opacity:1;marker:none;color-rendering:auto;image-rendering:auto;shape-rendering:auto;text-rendering:auto;enable-background:accumulate"
         id="ellipse78"
         cx="42.651207"
         cy="47.30093"
         rx="0.77934241"
         ry="0.75881279" /><ellipse
         ry="0.75881279"
         rx="0.77934241"
         cy="44.632118"
         cx="36.92384"
         id="ellipse74"
         style="color:#000000;clip-rule:nonzero;display:inline;overflow:visible;visibility:visible;isolation:auto;mix-blend-mode:normal;color-interpolation:sRGB;color-interpolation-filters:linearRGB;solid-color:#000000;solid-opacity:1;fill:#000000;fill-opacity:1;fill-rule:nonzero;stroke:none;stroke-width:0.433581;stroke-linecap:butt;stroke-linejoin:miter;stroke-miterlimit:4;stroke-dasharray:1.30074, 0.433581;stroke-dashoffset:0;stroke-opacity:1;marker:none;color-rendering:auto;image-rendering:auto;shape-rendering:auto;text-rendering:auto;enable-background:accumulate" /><path
         inkscape:connector-curvature="0"
         style="fill:#000000;stroke-width:0.165056"
         d="m 41.728837,42.899905 c 0.40818,-0.408181 0.408186,-1.068832 0,-1.477018 l -1.66278,-1.66278 c -0.246871,-0.246872 -0.586184,-0.343646 -0.906202,-0.2919 -0.0107,0.0017 -0.02119,0.0028 -0.03162,0.0045 -0.0029,5.65e-4 -0.0062,0.002 -0.009,0.002 -0.161598,0.03266 -0.316699,0.103291 -0.451118,0.212852 -0.02746,0.02227 -0.05388,0.04599 -0.07961,0.07171 -0.407895,0.407896 -0.408186,1.069969 -5e-6,1.47815 l 1.662785,1.662783 c 0.408461,0.407904 1.069687,0.407328 1.477583,-5.65e-4 z m -0.123645,-0.123647 c -0.339093,0.339095 -0.890628,0.339101 -1.229727,0 l -0.831678,-0.831675 1.229725,-1.229721 0.831677,0.831677 c 0.339096,0.339096 0.33909,0.890632 3e-6,1.229719 z M 39.009673,41.12817 c -0.02486,0.03237 -0.07464,0.03368 -0.106152,0.0056 -0.004,-0.0035 -0.448815,-0.41336 -0.221897,-0.97621 0.0035,-0.0098 0.0095,-0.01849 0.0164,-0.0254 0.02052,-0.02052 0.05296,-0.02851 0.08129,-0.01693 0.03903,0.01592 0.0574,0.05951 0.04178,0.09824 -0.188188,0.46629 0.179454,0.804486 0.183513,0.807966 0.03092,0.02802 0.03311,0.07577 0.0051,0.106711 z"
         id="path4220-7" /><path
         inkscape:connector-curvature="0"
         d="m 35.358121,41.951023 4.244798,2.393595 c 0.176866,0.117909 0.377314,0.176868 0.577762,0.176868 0.200449,0 0.400897,-0.05896 0.577763,-0.176868 l 4.244797,-2.393595 c 0.224034,-0.129704 0.365526,-0.353732 0.365526,-0.613139 0,-0.259402 -0.141492,-0.483433 -0.365526,-0.613136 l -4.244797,-2.34643 c -0.341941,-0.235822 -0.801794,-0.235822 -1.155525,0 l -4.244798,2.34643 c -0.235825,0.129703 -0.365525,0.353734 -0.365525,0.613136 0,0.259407 0.1297,0.483435 0.365525,0.613139 z m 0.23582,-0.801793 4.244797,-2.346433 c 0.01177,0 0.01177,-0.01177 0.02359,-0.01177 0,0 0,0 0,0 0,0 0,0 0,0 0.188657,-0.129704 0.448061,-0.129704 0.636718,0 0,0 0,0 0,0 0,0 0,0 0,0 0,0 0,0 0,0 0.0118,0 0.0118,0.01177 0.02359,0.01177 l 4.244798,2.346433 c 0.08254,0.04716 0.1297,0.117909 0.1297,0.200445 0,0.08254 -0.04716,0.153286 -0.1297,0.200451 l -4.244798,2.393592 c -0.0118,0 -0.0118,0.0118 -0.02359,0.0118 -0.188657,0.129701 -0.448061,0.129701 -0.636718,0 -0.01177,0 -0.01177,-0.0118 -0.02359,-0.0118 l -4.244797,-2.405383 c -0.08254,-0.04716 -0.129701,-0.117912 -0.129701,-0.200451 0,-0.07075 0.04717,-0.153283 0.129701,-0.188654 z"
         id="path6"
         style="stroke-width:0.0786107" /><path
         inkscape:connector-curvature="0"
         d="m 45.003241,42.917894 c -0.11791,-0.05896 -0.259402,-0.02359 -0.318358,0.09433 -0.05896,0.117912 -0.02359,0.259407 0.09433,0.318361 0.08254,0.04716 0.129701,0.117912 0.129701,0.200448 0,0.08254 -0.04716,0.153286 -0.129701,0.200451 l -4.256589,2.405383 c -0.0118,0 -0.0118,0.0118 -0.02359,0.0118 -0.188657,0.129701 -0.448062,0.129701 -0.636719,0 -0.0118,0 -0.0118,-0.0118 -0.02359,-0.0118 l -4.244797,-2.405383 c -0.08254,-0.04716 -0.129701,-0.117912 -0.129701,-0.200451 0,-0.08254 0.04716,-0.153283 0.129701,-0.200448 0.117909,-0.05895 0.153283,-0.21224 0.09433,-0.318361 -0.05895,-0.11791 -0.212237,-0.153283 -0.318358,-0.09433 -0.235822,0.129701 -0.365523,0.353734 -0.365523,0.613136 0,0.259405 0.129701,0.483436 0.365523,0.613139 l 4.244797,2.393592 c 0.176869,0.117915 0.377315,0.176869 0.577766,0.176869 0.200448,0 0.400896,-0.05895 0.577762,-0.176869 l 4.244798,-2.393592 c 0.22403,-0.129703 0.365525,-0.353734 0.365525,-0.613139 -0.0118,-0.24761 -0.153286,-0.483435 -0.377317,-0.613136 z"
         id="path8"
         style="stroke-width:0.0786107" /><path
         inkscape:connector-curvature="0"
         d="m 45.003241,45.040293 c -0.11791,-0.05895 -0.259402,-0.02359 -0.318358,0.09433 -0.05896,0.11791 -0.02359,0.259405 0.09433,0.318361 0.08254,0.04716 0.129701,0.11791 0.129701,0.200446 0,0.08254 -0.04716,0.153286 -0.129701,0.200451 l -4.256589,2.405383 c -0.0118,0 -0.0118,0.01177 -0.02359,0.01177 -0.188657,0.129703 -0.448062,0.129703 -0.636719,0 -0.0118,0 -0.0118,-0.01177 -0.02359,-0.01177 L 35.593921,45.85388 c -0.08254,-0.04716 -0.129701,-0.117912 -0.129701,-0.200451 0,-0.08254 0.04716,-0.153284 0.129701,-0.200446 0.117909,-0.05896 0.153283,-0.212242 0.09433,-0.318361 -0.05895,-0.106121 -0.212237,-0.153283 -0.318358,-0.09433 -0.235822,0.1297 -0.365523,0.353734 -0.365523,0.613136 0,0.259404 0.129701,0.483435 0.365523,0.613139 l 4.244797,2.393594 c 0.176869,0.11791 0.377315,0.176866 0.577766,0.176866 0.200448,0 0.400896,-0.05896 0.577762,-0.176866 l 4.244798,-2.393594 c 0.22403,-0.129704 0.365525,-0.353735 0.365525,-0.613139 -0.0118,-0.247611 -0.153286,-0.483436 -0.377317,-0.613136 z"
         id="path10-3"
         style="stroke-width:0.0786107" /><g
         id="g72"
         transform="matrix(0.28222223,0,0,0.28222223,-49.04877,-113.38548)"
         style="stroke-width:0.666695"><circle
           r="2.9017856"
           cy="545.21082"
           cx="329.58148"
           id="circle4252-5"
           style="color:#000000;clip-rule:nonzero;display:inline;overflow:visible;visibility:visible;opacity:1;isolation:auto;mix-blend-mode:normal;color-interpolation:sRGB;color-interpolation-filters:linearRGB;solid-color:#000000;solid-opacity:1;fill:#ff0000;fill-opacity:1;fill-rule:nonzero;stroke:none;stroke-width:1.33339;stroke-linecap:butt;stroke-linejoin:miter;stroke-miterlimit:4;stroke-dasharray:4.00017, 1.33339;stroke-dashoffset:0;stroke-opacity:1;marker:none;color-rendering:auto;image-rendering:auto;shape-rendering:auto;text-rendering:auto;enable-background:accumulate" /></g><ellipse
         style="color:#000000;clip-rule:nonzero;display:inline;overflow:visible;visibility:visible;isolation:auto;mix-blend-mode:normal;color-interpolation:sRGB;color-interpolation-filters:linearRGB;solid-color:#000000;solid-opacity:1;fill:#ff0000;fill-opacity:1;fill-rule:nonzero;stroke:none;stroke-width:0.376312;stroke-linecap:butt;stroke-linejoin:miter;stroke-miterlimit:4;stroke-dasharray:1.12894, 0.376312;stroke-dashoffset:0;stroke-opacity:1;marker:none;color-rendering:auto;image-rendering:auto;shape-rendering:auto;text-rendering:auto;enable-background:accumulate"
         id="path4248-3"
         cx="36.92384"
         cy="44.632118"
         rx="0.67640465"
         ry="0.65858668" /><circle
         r="0.65858668"
         cy="47.30093"
         cx="42.651207"
         id="circle4250-5"
         style="color:#000000;clip-rule:nonzero;display:inline;overflow:visible;visibility:visible;isolation:auto;mix-blend-mode:normal;color-interpolation:sRGB;color-interpolation-filters:linearRGB;solid-color:#000000;solid-opacity:1;fill:#ff0000;fill-opacity:1;fill-rule:nonzero;stroke:none;stroke-width:0.376312;stroke-linecap:butt;stroke-linejoin:miter;stroke-miterlimit:4;stroke-dasharray:1.12894, 0.376312;stroke-dashoffset:0;stroke-opacity:1;marker:none;color-rendering:auto;image-rendering:auto;shape-rendering:auto;text-rendering:auto;enable-background:accumulate" /></g><g
       id="g1568"
       transform="matrix(0.53759028,0,0,0.53759028,21.833029,22.449644)"
       style="stroke-width:1.5976"><g
         id="g1185"
         style="fill:#000000;fill-rule:evenodd;stroke:none;stroke-width:0.818264"
         transform="matrix(0.17879098,0,0,0.17879098,56.870229,66.08041)"><g
           id="g1183"
           transform="translate(-986,-742)"
           style="fill:#000000;stroke-width:0.818264"><g
             style="fill:#000000;stroke-width:0.818264"
             id="g1181"
             transform="translate(986,742)"><path
               style="fill:#666666;fill-opacity:1;stroke-width:0.818264"
               id="path1177"
               d="M 30,50 C 18.972,50 10,41.028 10,30 c 0,-0.33 0.009,-0.664 0.025,-1 0.185,-0.001 0.359,-0.036 0.538,-0.057 0.151,-0.017 0.307,-0.018 0.454,-0.048 0.177,-0.037 0.34,-0.104 0.51,-0.159 0.142,-0.046 0.29,-0.076 0.425,-0.134 0.16,-0.068 0.304,-0.163 0.455,-0.247 0.131,-0.073 0.27,-0.132 0.393,-0.215 0.14,-0.095 0.26,-0.214 0.39,-0.322 0.116,-0.097 0.241,-0.182 0.348,-0.289 0.12,-0.121 0.218,-0.262 0.325,-0.394 0.094,-0.116 0.2,-0.222 0.284,-0.346 0.1,-0.147 0.172,-0.312 0.255,-0.469 0.068,-0.127 0.149,-0.246 0.205,-0.379 0.08,-0.188 0.128,-0.391 0.184,-0.59 0.033,-0.117 0.083,-0.226 0.107,-0.346 C 14.965,24.68 15,24.344 15,24 15,23.702 14.964,23.411 14.911,23.124 14.898,23.047 14.884,22.97 14.867,22.893 14.808,22.64 14.734,22.393 14.637,22.154 14.596,22.053 14.547,21.958 14.5,21.86 14.429,21.712 14.351,21.568 14.265,21.428 14.191,21.305 14.116,21.185 14.032,21.07 13.914,20.908 13.786,20.753 13.649,20.606 13.555,20.505 13.457,20.411 13.355,20.319 13.252,20.224 13.143,20.137 13.031,20.052 12.945,19.985 12.869,19.908 12.778,19.847 16.374,13.748 22.883,10 30,10 41.028,10 50,18.972 50,30 50,41.028 41.028,50 30,50 M 52,30 C 52,17.869 42.131,8 30,8 22.072,8 14.841,12.234 10.918,19.093 10.62,19.037 10.315,19 10,19 7.243,19 5,21.243 5,24 5,26.073 6.269,27.854 8.07,28.611 8.041,29.076 8,29.544 8,30 8,42.131 17.869,52 30,52 42.131,52 52,42.131 52,30"
               inkscape:connector-curvature="0" /><path
               style="fill:#333333;stroke-width:0.818264"
               id="path1179"
               d="m 43.2881,54.6436 c -4.071,2.198 -8.646,3.356 -13.288,3.356 -15.44,0 -28,-12.56 -28,-28 0,-15.439 12.56,-28 28,-28 5.296,0 10.454,1.492 14.922,4.314 l 0.26,0.247 c -0.115,0.462 -0.182,0.943 -0.182,1.439 0,3.309 2.691,6 6,6 0.263,0 0.521,-0.022 0.775,-0.055 0.069,-0.009 0.136,-0.02 0.204,-0.032 0.219,-0.036 0.434,-0.083 0.645,-0.142 0.029,-0.008 0.06,-0.011 0.089,-0.02 l 0.255,0.244 c 3.292,4.714 5.032,10.247 5.032,16.005 0,7.001 -2.574,13.645 -7.269,18.811 -0.235,-0.154 -0.484,-0.28 -0.74,-0.392 -0.053,-0.022 -0.107,-0.039 -0.161,-0.06 -0.225,-0.089 -0.456,-0.161 -0.693,-0.216 -0.077,-0.018 -0.152,-0.036 -0.23,-0.051 -0.297,-0.054 -0.599,-0.092 -0.907,-0.092 -2.757,0 -5,2.244 -5,5 0,0.303 0.034,0.603 0.091,0.901 0.03,0.166 0.082,0.323 0.128,0.483 0.026,0.086 0.039,0.175 0.069,0.26 m 16.712,-24.644 c 0,-6.187 -1.877,-12.131 -5.424,-17.193 1.468,-1.095 2.424,-2.839 2.424,-4.807 0,-3.308 -2.691,-6 -6,-6 -2.068,0 -3.894,1.052 -4.974,2.648 -4.797,-3.04 -10.337,-4.648 -16.026,-4.648 -16.542,0 -30,13.458 -30,30 0,16.542 13.458,30 30,30 5.005,0 9.929,-1.27 14.311,-3.654 0.915,1.009 2.223,1.654 3.689,1.654 2.757,0 5,-2.243 5,-5 0,-1.031 -0.315,-1.991 -0.852,-2.788 5.066,-5.542 7.852,-12.682 7.852,-20.212"
               inkscape:connector-curvature="0" /></g></g></g><path
         inkscape:connector-curvature="0"
         style="fill:#cccccc;fill-opacity:1;stroke-width:0.259298"
         d="m 64.424357,73.491716 c 0.522465,-0.522464 0.522471,-1.368086 0,-1.890556 l -2.12833,-2.128327 c -0.315989,-0.315992 -0.750305,-0.439861 -1.159919,-0.373629 -0.01369,0.0019 -0.02716,0.0036 -0.04047,0.0058 -0.0037,6.2e-4 -0.0079,0.0022 -0.01157,0.0028 -0.206843,0.04181 -0.40537,0.132208 -0.577422,0.272448 -0.03516,0.02849 -0.06897,0.05886 -0.101899,0.09179 -0.5221,0.5221 -0.522471,1.36954 -6e-6,1.892004 l 2.12833,2.128331 c 0.522826,0.522109 1.369182,0.52137 1.891282,-6.2e-4 z m -0.158264,-0.158264 c -0.434033,0.434033 -1.139988,0.43404 -1.574028,0 l -1.064531,-1.064531 1.574021,-1.574022 1.064532,1.064531 c 0.434039,0.434039 0.434033,1.139995 6e-6,1.574022 z m -3.322216,-2.109523 c -0.03183,0.04143 -0.09553,0.0431 -0.135869,0.0072 -0.0052,-0.0044 -0.574475,-0.529094 -0.284027,-1.249528 0.0044,-0.01258 0.0121,-0.02364 0.02098,-0.03252 0.02627,-0.02627 0.06779,-0.03648 0.104057,-0.02168 0.04995,0.02034 0.07346,0.07617 0.05348,0.125751 -0.24088,0.596841 0.229697,1.029724 0.234891,1.03418 0.03957,0.03588 0.04239,0.09698 0.0065,0.136591 z"
         id="path1187" /><ellipse
         style="color:#000000;clip-rule:nonzero;display:inline;overflow:visible;visibility:visible;isolation:auto;mix-blend-mode:normal;color-interpolation:sRGB;color-interpolation-filters:linearRGB;solid-color:#000000;solid-opacity:1;fill:none;fill-opacity:1;fill-rule:nonzero;stroke:none;stroke-width:0.518599;stroke-linecap:butt;stroke-linejoin:miter;stroke-miterlimit:4;stroke-dasharray:1.5558, 0.518599;stroke-dashoffset:0;stroke-opacity:1;marker:none;color-rendering:auto;image-rendering:auto;shape-rendering:auto;text-rendering:auto;enable-background:accumulate"
         id="ellipse1189"
         cx="58.646538"
         cy="70.381348"
         rx="0.75949067"
         ry="0.73948395" /><circle
         r="0.73948395"
         cy="75.553055"
         cx="65.448792"
         id="circle1191"
         style="color:#000000;clip-rule:nonzero;display:inline;overflow:visible;visibility:visible;isolation:auto;mix-blend-mode:normal;color-interpolation:sRGB;color-interpolation-filters:linearRGB;solid-color:#000000;solid-opacity:1;fill:none;fill-opacity:1;fill-rule:nonzero;stroke:none;stroke-width:0.518599;stroke-linecap:butt;stroke-linejoin:miter;stroke-miterlimit:4;stroke-dasharray:1.5558, 0.518599;stroke-dashoffset:0;stroke-opacity:1;marker:none;color-rendering:auto;image-rendering:auto;shape-rendering:auto;text-rendering:auto;enable-background:accumulate" /><circle
         style="color:#000000;clip-rule:nonzero;display:inline;overflow:visible;visibility:visible;isolation:auto;mix-blend-mode:normal;color-interpolation:sRGB;color-interpolation-filters:linearRGB;solid-color:#000000;solid-opacity:1;fill:none;fill-opacity:1;fill-rule:nonzero;stroke:none;stroke-width:0.518599;stroke-linecap:butt;stroke-linejoin:miter;stroke-miterlimit:4;stroke-dasharray:1.5558, 0.518599;stroke-dashoffset:0;stroke-opacity:1;marker:none;color-rendering:auto;image-rendering:auto;shape-rendering:auto;text-rendering:auto;enable-background:accumulate"
         id="circle1193"
         cx="65.970673"
         cy="67.528687"
         r="0.91954368" /><g
         style="clip-rule:evenodd;fill:#00aa44;fill-opacity:1;fill-rule:evenodd;stroke:#000000;stroke-width:167.296;stroke-miterlimit:4;stroke-dasharray:none;image-rendering:optimizeQuality;shape-rendering:geometricPrecision;text-rendering:geometricPrecision"
         id="g1199"
         transform="matrix(0.0011409,0,0,0.0011409,58.33113,68.119189)"><g
           id="g1197"
           style="fill:#00aa44;fill-opacity:1;stroke:#000000;stroke-width:167.296;stroke-miterlimit:4;stroke-dasharray:none"><path
             id="path1195"
             d="M 2538,4078 5034,1582 c 215,-215 563,-215 778,0 215,215 215,563 0,778 L 2930,5242 c -1,1 -2,2 -3,3 -215,215 -563,215 -778,0 l -104,-104 v 0 L 1015,4111 c -215,-215 -215,-563 0,-778 215,-215 563,-215 778,0 z"
             class="fil0"
             inkscape:connector-curvature="0"
             style="fill:#008000;fill-opacity:1;stroke:#000000;stroke-width:167.296;stroke-miterlimit:4;stroke-dasharray:none" /></g></g></g><text
       xml:space="preserve"
       style="font-style:normal;font-variant:normal;font-weight:normal;font-stretch:normal;font-size:3.02984px;line-height:1.25;font-family:arial;-inkscape-font-specification:'arial, Normal';font-variant-ligatures:normal;font-variant-position:normal;font-variant-caps:normal;font-variant-numeric:normal;font-variant-alternates:normal;font-variant-east-asian:normal;font-feature-settings:normal;font-variation-settings:normal;text-indent:0;text-align:start;text-decoration:none;text-decoration-line:none;text-decoration-style:solid;text-decoration-color:#000000;letter-spacing:0px;word-spacing:0px;text-transform:none;writing-mode:lr-tb;direction:ltr;text-orientation:mixed;dominant-baseline:auto;baseline-shift:baseline;white-space:normal;opacity:1;vector-effect:none;fill:#000000;fill-opacity:1;stroke-width:0.227237;stroke-linecap:butt;stroke-linejoin:miter;stroke-miterlimit:4;stroke-dasharray:none;stroke-dashoffset:0;stroke-opacity:1;-inkscape-stroke:none;stop-color:#000000;stop-opacity:1"
       x="18.591446"
       y="67.53669"
       id="text525"><tspan
         sodipodi:role="line"
         id="tspan523"
         style="font-style:normal;font-variant:normal;font-weight:normal;font-stretch:normal;font-size:3.02984px;line-height:1.25;font-family:arial;-inkscape-font-specification:'arial, Normal';font-variant-ligatures:normal;font-variant-position:normal;font-variant-caps:normal;font-variant-numeric:normal;font-variant-alternates:normal;font-variant-east-asian:normal;font-feature-settings:normal;font-variation-settings:normal;text-indent:0;text-align:start;text-decoration:none;text-decoration-line:none;text-decoration-style:solid;text-decoration-color:#000000;letter-spacing:0px;word-spacing:0px;text-transform:none;writing-mode:lr-tb;direction:ltr;text-orientation:mixed;dominant-baseline:auto;baseline-shift:baseline;white-space:normal;vector-effect:none;fill:#000000;fill-opacity:1;stroke-width:0.227237;stroke-linecap:butt;stroke-linejoin:miter;stroke-miterlimit:4;stroke-dasharray:none;stroke-dashoffset:0;stroke-opacity:1;-inkscape-stroke:none;stop-color:#000000;stop-opacity:1"
         x="18.591446"
         y="67.53669">Share</tspan></text><text
       xml:space="preserve"
       style="font-style:normal;font-variant:normal;font-weight:normal;font-stretch:normal;font-size:3.02984px;line-height:1.25;font-family:arial;-inkscape-font-specification:'arial, Normal';font-variant-ligatures:normal;font-variant-position:normal;font-variant-caps:normal;font-variant-numeric:normal;font-variant-alternates:normal;font-variant-east-asian:normal;font-feature-settings:normal;font-variation-settings:normal;text-indent:0;text-align:start;text-decoration:none;text-decoration-line:none;text-decoration-style:solid;text-decoration-color:#000000;letter-spacing:0px;word-spacing:0px;text-transform:none;writing-mode:lr-tb;direction:ltr;text-orientation:mixed;dominant-baseline:auto;baseline-shift:baseline;white-space:normal;opacity:1;vector-effect:none;fill:#000000;fill-opacity:1;stroke-width:0.227237;stroke-linecap:butt;stroke-linejoin:miter;stroke-miterlimit:4;stroke-dasharray:none;stroke-dashoffset:0;stroke-opacity:1;-inkscape-stroke:none;stop-color:#000000;stop-opacity:1"
       x="50.466522"
       y="67.259705"
       id="text529"><tspan
         sodipodi:role="line"
         id="tspan527"
         style="font-style:normal;font-variant:normal;font-weight:normal;font-stretch:normal;font-size:3.02984px;line-height:1.25;font-family:arial;-inkscape-font-specification:'arial, Normal';font-variant-ligatures:normal;font-variant-position:normal;font-variant-caps:normal;font-variant-numeric:normal;font-variant-alternates:normal;font-variant-east-asian:normal;font-feature-settings:normal;font-variation-settings:normal;text-indent:0;text-align:start;text-decoration:none;text-decoration-line:none;text-decoration-style:solid;text-decoration-color:#000000;letter-spacing:0px;word-spacing:0px;text-transform:none;writing-mode:lr-tb;direction:ltr;text-orientation:mixed;dominant-baseline:auto;baseline-shift:baseline;white-space:normal;vector-effect:none;fill:#000000;fill-opacity:1;stroke-width:0.227237;stroke-linecap:butt;stroke-linejoin:miter;stroke-miterlimit:4;stroke-dasharray:none;stroke-dashoffset:0;stroke-opacity:1;-inkscape-stroke:none;stop-color:#000000;stop-opacity:1"
         x="50.466522"
         y="67.259705">Validate</tspan></text><text
       xml:space="preserve"
       style="font-style:normal;font-variant:normal;font-weight:normal;font-stretch:normal;font-size:3.02984px;line-height:1.25;font-family:arial;-inkscape-font-specification:'arial, Normal';font-variant-ligatures:normal;font-variant-position:normal;font-variant-caps:normal;font-variant-numeric:normal;font-variant-alternates:normal;font-variant-east-asian:normal;font-feature-settings:normal;font-variation-settings:normal;text-indent:0;text-align:start;text-decoration:none;text-decoration-line:none;text-decoration-style:solid;text-decoration-color:#000000;letter-spacing:0px;word-spacing:0px;text-transform:none;writing-mode:lr-tb;direction:ltr;text-orientation:mixed;dominant-baseline:auto;baseline-shift:baseline;white-space:normal;opacity:1;vector-effect:none;fill:#000000;fill-opacity:1;stroke-width:0.227237;stroke-linecap:butt;stroke-linejoin:miter;stroke-miterlimit:4;stroke-dasharray:none;stroke-dashoffset:0;stroke-opacity:1;-inkscape-stroke:none;stop-color:#000000;stop-opacity:1"
       x="62.512936"
       y="39.699738"
       id="text533"><tspan
         sodipodi:role="line"
         id="tspan531"
         style="font-style:normal;font-variant:normal;font-weight:normal;font-stretch:normal;font-size:3.02984px;line-height:1.25;font-family:arial;-inkscape-font-specification:'arial, Normal';font-variant-ligatures:normal;font-variant-position:normal;font-variant-caps:normal;font-variant-numeric:normal;font-variant-alternates:normal;font-variant-east-asian:normal;font-feature-settings:normal;font-variation-settings:normal;text-indent:0;text-align:start;text-decoration:none;text-decoration-line:none;text-decoration-style:solid;text-decoration-color:#000000;letter-spacing:0px;word-spacing:0px;text-transform:none;writing-mode:lr-tb;direction:ltr;text-orientation:mixed;dominant-baseline:auto;baseline-shift:baseline;white-space:normal;vector-effect:none;fill:#000000;fill-opacity:1;stroke-width:0.227237;stroke-linecap:butt;stroke-linejoin:miter;stroke-miterlimit:4;stroke-dasharray:none;stroke-dashoffset:0;stroke-opacity:1;-inkscape-stroke:none;stop-color:#000000;stop-opacity:1"
         x="62.512936"
         y="39.699738">Edit</tspan></text><text
       xml:space="preserve"
       style="font-style:normal;font-variant:normal;font-weight:normal;font-stretch:normal;font-size:3.02984px;line-height:1.25;font-family:arial;-inkscape-font-specification:'arial, Normal';font-variant-ligatures:normal;font-variant-position:normal;font-variant-caps:normal;font-variant-numeric:normal;font-variant-alternates:normal;font-variant-east-asian:normal;font-feature-settings:normal;font-variation-settings:normal;text-indent:0;text-align:start;text-decoration:none;text-decoration-line:none;text-decoration-style:solid;text-decoration-color:#000000;letter-spacing:0px;word-spacing:0px;text-transform:none;writing-mode:lr-tb;direction:ltr;text-orientation:mixed;dominant-baseline:auto;baseline-shift:baseline;white-space:normal;opacity:1;vector-effect:none;fill:#000000;fill-opacity:1;stroke-width:0.227237;stroke-linecap:butt;stroke-linejoin:miter;stroke-miterlimit:4;stroke-dasharray:none;stroke-dashoffset:0;stroke-opacity:1;-inkscape-stroke:none;stop-color:#000000;stop-opacity:1"
       x="36.796188"
       y="11.503152"
       id="text537"><tspan
         sodipodi:role="line"
         id="tspan535"
         style="font-style:normal;font-variant:normal;font-weight:normal;font-stretch:normal;font-size:3.02984px;line-height:1.25;font-family:arial;-inkscape-font-specification:'arial, Normal';font-variant-ligatures:normal;font-variant-position:normal;font-variant-caps:normal;font-variant-numeric:normal;font-variant-alternates:normal;font-variant-east-asian:normal;font-feature-settings:normal;font-variation-settings:normal;text-indent:0;text-align:start;text-decoration:none;text-decoration-line:none;text-decoration-style:solid;text-decoration-color:#000000;letter-spacing:0px;word-spacing:0px;text-transform:none;writing-mode:lr-tb;direction:ltr;text-orientation:mixed;dominant-baseline:auto;baseline-shift:baseline;white-space:normal;vector-effect:none;fill:#000000;fill-opacity:1;stroke-width:0.227237;stroke-linecap:butt;stroke-linejoin:miter;stroke-miterlimit:4;stroke-dasharray:none;stroke-dashoffset:0;stroke-opacity:1;-inkscape-stroke:none;stop-color:#000000;stop-opacity:1"
         x="36.796188"
         y="11.503152">View</tspan></text><path
       sodipodi:type="star"
       style="opacity:1;fill:none;stroke:#000000;stroke-width:0.853354;stroke-linecap:round;stroke-linejoin:round;stroke-dasharray:5.12012, 5.12012;stroke-dashoffset:0.682683;stroke-opacity:1;paint-order:markers stroke fill;stop-color:#000000"
       id="path647"
       inkscape:flatsided="true"
       sodipodi:sides="5"
       sodipodi:cx="20.586203"
       sodipodi:cy="12.553021"
       sodipodi:r1="51.346962"
       sodipodi:r2="41.540565"
       sodipodi:arg1="1.0471976"
       sodipodi:arg2="1.6755161"
       inkscape:rounded="0"
       inkscape:randomized="0"
       d="M 46.259681,57.020796 -13.771623,50.711249 -26.32158,-8.3316718 25.953424,-38.512656 70.811111,1.8773902 Z"
       inkscape:transform-center-x="0.03763123"
       inkscape:transform-center-y="-1.7847724"
       transform="matrix(0.40051514,-0.04166862,0.04168977,0.40031186,31.219174,36.605916)" /><path
       fill-rule="evenodd"
       clip-rule="evenodd"
       d="m 42.503135,13.395651 h -4.771992 c -0.386305,0 -0.681714,0.295409 -0.681714,0.681714 v 3.863041 c 0,0.386304 0.295409,0.681714 0.681714,0.681714 h 4.771992 c 0.386304,0 0.681714,-0.29541 0.681714,-0.681714 v -3.863041 c 0,-0.386305 -0.29541,-0.681714 -0.681714,-0.681714 z m -3.408566,4.771993 h -1.590665 v -0.681713 h 1.590665 z m 0,-0.908951 H 37.503904 V 16.57698 h 1.590665 z m 0,-0.908951 h -1.590665 v -0.681714 h 1.590665 z m 0,-0.908951 h -1.590665 v -0.681713 h 1.590665 z m 0,-0.908951 h -1.590665 v -0.681713 h 1.590665 z m 1.817902,3.635804 h -1.590664 v -0.681713 h 1.590664 z m 0,-0.908951 H 39.321807 V 16.57698 h 1.590664 z m 0,-0.908951 h -1.590664 v -0.681714 h 1.590664 z m 0,-0.908951 h -1.590664 v -0.681713 h 1.590664 z m 0,-0.908951 h -1.590664 v -0.681713 h 1.590664 z m 1.817902,3.635804 h -1.590664 v -0.681713 h 1.590664 z m 0,-0.908951 H 41.139709 V 16.57698 h 1.590664 z m 0,-0.908951 h -1.590664 v -0.681714 h 1.590664 z m 0,-0.908951 h -1.590664 v -0.681713 h 1.590664 z m 0,-0.908951 h -1.590664 v -0.681713 h 1.590664 z"
       id="path1299"
       style="stroke-width:0.227237" /><g
       id="g1401"
       transform="matrix(0.85885136,0,0,0.85885136,-1.9757654,-2.0107243)"><path
         fill-rule="evenodd"
         clip-rule="evenodd"
         d="m 80.616326,38.12326 h -5.55625 c -0.449792,0 -0.79375,0.343958 -0.79375,0.79375 v 4.497917 c 0,0.449791 0.343958,0.79375 0.79375,0.79375 h 5.55625 c 0.449791,0 0.79375,-0.343959 0.79375,-0.79375 V 38.91701 c 0,-0.449792 -0.343959,-0.79375 -0.79375,-0.79375 z m -3.96875,5.55625 h -1.852084 v -0.79375 h 1.852084 z m 0,-1.058333 h -1.852084 v -0.79375 h 1.852084 z m 0,-1.058334 h -1.852084 v -0.79375 h 1.852084 z m 0,-1.058333 h -1.852084 v -0.79375 h 1.852084 z m 0,-1.058333 h -1.852084 v -0.79375 h 1.852084 z m 2.116666,4.233333 h -1.852083 v -0.79375 h 1.852083 z m 0,-1.058333 h -1.852083 v -0.79375 h 1.852083 z m 0,-1.058334 h -1.852083 v -0.79375 h 1.852083 z m 0,-1.058333 h -1.852083 v -0.79375 h 1.852083 z m 0,-1.058333 h -1.852083 v -0.79375 h 1.852083 z m 2.116667,4.233333 h -1.852083 v -0.79375 h 1.852083 z m 0,-1.058333 h -1.852083 v -0.79375 h 1.852083 z m 0,-1.058334 h -1.852083 v -0.79375 h 1.852083 z m 0,-1.058333 h -1.852083 v -0.79375 h 1.852083 z m 0,-1.058333 h -1.852083 v -0.79375 h 1.852083 z"
         id="path1320"
         style="fill:#000000;stroke-width:0.264583" /><g
         id="g1395"
         transform="translate(1.2377102,6.3085453)"><path
           d="m 80.853898,34.369325 -1.090348,-1.090348 -2.919677,2.920207 v 1.090348 h 1.090348 z m -1.090083,-0.5207 0.5207,0.5207 -0.218546,0.218811 -0.5207,-0.5207 z m -0.503502,0.503502 0.5207,0.5207 -1.729052,1.729053 -0.5207,-0.520965 z m -2.013744,2.534444 v -0.5207 l 0.5207,0.5207 z"
           id="path1308"
           style="stroke-width:0.264583" /><path
           style="font-variation-settings:normal;opacity:1;vector-effect:none;fill:#f9f9f9;fill-opacity:1;stroke:none;stroke-width:1;stroke-linecap:butt;stroke-linejoin:miter;stroke-miterlimit:4;stroke-dasharray:none;stroke-dashoffset:0;stroke-opacity:1;-inkscape-stroke:none;paint-order:markers stroke fill;stop-color:#000000;stop-opacity:1"
           d="m 294.04788,137.33188 -0.9597,-0.96221 3.24285,-3.2436 3.24286,-3.24359 0.96132,0.96132 0.96133,0.96133 -3.24448,3.24448 -3.24448,3.24448 z"
           id="path1391"
           transform="scale(0.26458333)" /></g></g><g
       id="g1537"
       transform="matrix(0.2528115,0,0,0.2528115,9.1819469,28.138335)"
       style="stroke-width:3.39721"><path
         d="M 26.414142,7.9980476 H 4.553209 c -0.2921,0 -0.5291667,0.2370666 -0.5291667,0.5291666 V 23.198889 c 0,0.2921 0.2370667,0.529167 0.5291667,0.529167 h 7.521575 v 1.305983 l -0.825765,1.169988 c -0.08546,0.121179 -0.09631,0.279929 -0.02805,0.411691 0.06826,0.131498 0.203994,0.214313 0.352425,0.214313 h 7.820819 c 0.148696,0 0.284692,-0.08282 0.35269,-0.215106 0.06826,-0.132027 0.05688,-0.291042 -0.02937,-0.412221 l -0.824706,-1.158875 v -1.315773 h 7.521575 c 0.2921,0 0.529167,-0.237067 0.529167,-0.529167 V 8.5272142 c -2.64e-4,-0.2921 -0.237331,-0.5291666 -0.529431,-0.5291666 z M 12.339103,26.036016 c 0,0 0.492654,-0.709877 0.504825,-0.744008 h 5.273939 c 0.01244,0.03863 0.506413,0.744008 0.506413,0.744008 z m 5.759714,-1.008327 H 12.868534 V 23.72832 h 5.230283 z m 7.786159,-2.357702 H 5.0823757 V 9.0563809 H 25.884711 V 22.669987 Z m 0.80301,7.682177 -3.308879,-2.990585 c -0.0971,-0.08811 -0.223838,-0.13679 -0.354806,-0.13679 H 7.9430507 c -0.1309688,0 -0.2577042,0.04868 -0.3548063,0.13679 l -3.3514771,3.029214 c -0.1624541,0.146844 -0.2177521,0.378355 -0.1389062,0.582613 0.078581,0.203994 0.2749021,0.338931 0.4937125,0.338931 h 21.7842044 0.0053 c 0.292365,0 0.529167,-0.237067 0.529167,-0.529167 0,-0.177535 -0.08784,-0.335227 -0.22225,-0.431006 z M 5.966084,30.254268 8.1465152,28.283387 H 22.820571 l 2.180432,1.970881 z"
         id="path1403"
         style="stroke-width:0.898842"
         sodipodi:nodetypes="cssssccccssccccsscccccccccccccccccccccsscccscssscccccc" /><g
         id="g1418"
         transform="matrix(0.16251977,0,0,0.16251977,7.2693062,7.6446882)"
         style="stroke-width:5.53068"><path
           fill="#000000"
           d="m 85.884766,43.875 -7.466797,-1.791992 c -0.638672,-2.304199 -1.551758,-4.511231 -2.722657,-6.583496 l 4.010743,-6.542969 c 0.362304,-0.591309 0.271484,-1.354004 -0.21875,-1.844238 l -6.59961,-6.59961 C 72.399414,20.023926 71.638672,19.930176 71.042969,20.294433 L 64.5,24.304687 c -2.071289,-1.17041 -4.27832,-2.083496 -6.582031,-2.723144 l -1.791992,-7.466797 c -0.16211,-0.674316 -0.765625,-1.149902 -1.458985,-1.149902 h -9.333984 c -0.69336,0 -1.296875,0.475586 -1.458985,1.149902 l -1.791992,7.466797 C 39.77832,22.221191 37.571289,23.134277 35.5,24.304687 l -6.542969,-4.010253 c -0.59375,-0.36377 -1.355469,-0.272461 -1.844726,0.218261 l -6.59961,6.59961 c -0.490234,0.490234 -0.581055,1.252929 -0.21875,1.844238 l 4.010742,6.542969 c -1.170898,2.072265 -2.083984,4.279297 -2.722656,6.583496 L 14.115234,43.875 c -0.674804,0.161621 -1.15039,0.765137 -1.15039,1.458496 v 9.333008 c 0,0.693359 0.475586,1.296875 1.15039,1.458496 l 7.466797,1.791992 c 0.638672,2.304199 1.551758,4.511231 2.722656,6.583496 l -4.010742,6.542969 c -0.362304,0.591309 -0.271484,1.354004 0.21875,1.844238 l 6.59961,6.59961 c 0.489258,0.489746 1.25,0.583984 1.844726,0.218262 l 6.541993,-4.010254 c 2.072265,1.17041 4.279296,2.083496 6.583007,2.723144 l 1.791993,7.466309 c 0.162109,0.674316 0.765625,1.149902 1.458984,1.149902 h 9.333984 c 0.69336,0 1.296875,-0.475586 1.458985,-1.149902 l 1.791992,-7.466309 c 2.303711,-0.639648 4.510742,-1.552734 6.583008,-2.723144 l 6.541992,4.010254 c 0.59375,0.363281 1.355469,0.27246 1.844727,-0.218262 l 6.599609,-6.59961 c 0.490234,-0.490234 0.581055,-1.252929 0.21875,-1.844238 l -4.010742,-6.542969 c 1.170898,-2.072265 2.083984,-4.279297 2.722656,-6.583496 L 85.884766,56.125 c 0.674804,-0.161621 1.15039,-0.765137 1.15039,-1.458496 v -9.333008 c 0,-0.693359 -0.475586,-1.296875 -1.15039,-1.458496 z m -1.84961,9.608887 -6.896484,1.654785 c -0.658203,0.02685 -1.235352,0.486328 -1.395508,1.145019 -0.642578,2.643555 -1.679688,5.155762 -3.083984,7.465332 -0.324219,0.532715 -0.276368,1.192872 0.08105,1.671387 l 3.790039,6.182129 -4.927734,4.927246 -6.141602,-3.764648 c -0.482422,-0.381836 -1.166015,-0.438965 -1.711914,-0.106446 -2.30957,1.404297 -4.821289,2.442383 -7.46582,3.08545 -0.632813,0.153808 -1.070313,0.692382 -1.125,1.318359 l -1.673828,6.972168 h -6.96875 L 44.861328,77.14209 c -0.02539,-0.659668 -0.485352,-1.237793 -1.144531,-1.397949 -2.644531,-0.643067 -5.15625,-1.681153 -7.465821,-3.085449 -0.533203,-0.322754 -1.191406,-0.275879 -1.671875,0.08203 l -6.18164,3.789062 -4.927735,-4.927246 3.764649,-6.141602 c 0.382812,-0.481933 0.439453,-1.165039 0.106445,-1.711914 -1.404297,-2.30957 -2.441406,-4.821777 -3.083984,-7.465332 -0.154297,-0.632324 -0.692383,-1.070312 -1.317383,-1.125976 l -6.974609,-1.673828 v -6.967774 l 6.896484,-1.654785 c 0.658203,-0.02685 1.235352,-0.486328 1.395508,-1.145019 0.642578,-2.643555 1.679687,-5.155762 3.083984,-7.465332 0.324219,-0.532715 0.276367,-1.192872 -0.08105,-1.671387 l -3.790039,-6.182129 4.927735,-4.927246 6.138672,3.762695 c 0.484375,0.385742 1.167968,0.440918 1.714843,0.108887 2.309571,-1.404785 4.82129,-2.442871 7.465821,-3.085938 0.632812,-0.153808 1.070312,-0.692382 1.125,-1.318359 l 1.673828,-6.972656 h 6.96875 l 1.654297,6.893066 c 0.02539,0.659668 0.485351,1.237793 1.144531,1.397949 2.644531,0.643067 5.15625,1.681153 7.46582,3.085938 0.532227,0.323242 1.19336,0.276855 1.672852,-0.08301 l 6.180664,-3.788574 4.927734,4.927246 -3.764648,6.141602 c -0.382813,0.481933 -0.439453,1.165039 -0.106445,1.711914 1.404297,2.30957 2.441406,4.821777 3.083984,7.465332 0.154297,0.632324 0.692383,1.070312 1.317383,1.125976 l 6.974609,1.673828 v 6.967774 z"
           id="path1412"
           style="stroke-width:9.00398" /><path
           fill="#000000"
           d="m 43.554687,40.277344 h -5.379882 c -4.206055,0 -7.62793,3.422363 -7.62793,7.628906 V 48.5 h -6.082031 v 3 h 6.082031 v 0.59375 c 0,4.206543 3.421875,7.628906 7.62793,7.628906 h 5.379882 c 0.828125,0 1.5,-0.671386 1.5,-1.5 V 41.777344 c 0,-0.828613 -0.671875,-1.5 -1.5,-1.5 z m -1.5,16.445312 h -3.879882 c -2.551758,0 -4.62793,-2.07666 -4.62793,-4.628906 v -4.1875 c 0,-2.552246 2.076172,-4.628906 4.62793,-4.628906 h 3.879882 z"
           id="path1414"
           style="stroke-width:9.00398" /><path
           fill="#000000"
           d="m 71.703125,47.90625 c 0,-4.206543 -3.421875,-7.628906 -7.62793,-7.628906 h -5.379882 c -0.828125,0 -1.5,0.671386 -1.5,1.5 v 2.728027 h -6.053711 v 3 h 6.053711 v 4.698731 h -6.053711 v 3 h 6.053711 v 3.018554 c 0,0.828614 0.671875,1.5 1.5,1.5 h 5.379882 c 4.206055,0 7.62793,-3.422363 7.62793,-7.628906 V 51.5 h 6.082031 v -3 h -6.082031 z m -3,4.1875 c 0,2.552246 -2.076172,4.628906 -4.62793,4.628906 H 60.195313 V 43.277344 h 3.879882 c 2.551758,0 4.62793,2.07666 4.62793,4.628906 z"
           id="path1416"
           style="stroke-width:9.00398" /></g></g><path
       style="color:#000000;text-indent:0;text-transform:none;direction:ltr;baseline-shift:baseline;stroke-width:0.227237;enable-background:accumulate"
       d="m 19.910196,58.66018 c -0.66372,0 -1.206082,0.541318 -1.206082,1.203759 0,0.394568 0.194097,0.730058 0.489971,0.937294 -0.760146,0.29135 -1.302903,1.026246 -1.297165,1.884015 0.0016,0.10669 0.1004,0.202267 0.207294,0.200628 0.106896,-0.0016 0.202658,-0.100203 0.201014,-0.206904 -0.0059,-0.888766 0.701912,-1.608486 1.592405,-1.614419 0.529119,-0.0035 1.026355,0.252675 1.328575,0.680253 -0.439851,0.371475 -0.72024,0.925215 -0.716112,1.542317 0.0016,0.106689 0.1004,0.202277 0.207296,0.200627 0.106895,-0.0016 0.202658,-0.100203 0.201013,-0.206894 -0.0059,-0.888776 0.701913,-1.608495 1.592405,-1.614419 0.890492,-0.0059 1.611587,0.709984 1.617531,1.59875 0.003,0.112383 0.108695,0.206753 0.204155,0.209972 0.104701,-0.003 0.204259,-0.09352 0.204154,-0.216288 -0.004,-0.605244 -0.280766,-1.145818 -0.709829,-1.510957 0.486301,-0.687827 1.422801,-0.892438 2.151474,-0.445148 0.475568,0.291961 0.762707,0.809503 0.763224,1.366762 0,0.10669 0.09726,0.203756 0.204154,0.203756 0.106895,0 0.204155,-0.09707 0.204155,-0.203756 -6.08e-4,-0.695933 -0.367173,-1.340713 -0.961097,-1.705319 -0.105985,-0.06504 -0.215015,-0.119143 -0.326647,-0.163016 0.291459,-0.209288 0.480548,-0.544778 0.480548,-0.937294 0,-0.662441 -0.542361,-1.203759 -1.206082,-1.203759 -0.663721,0 -1.206082,0.541318 -1.206082,1.203759 0,0.390495 0.191203,0.724646 0.48369,0.934166 -0.361895,0.138124 -0.684033,0.382853 -0.920267,0.717861 -0.0776,-0.04269 -0.158479,-0.08051 -0.241843,-0.112856 0.289412,-0.211259 0.477407,-0.546387 0.477407,-0.937297 0,-0.662431 -0.542361,-1.203759 -1.206081,-1.203759 -0.663722,0 -1.206082,0.541328 -1.206082,1.203759 0,0.391423 0.193165,0.726098 0.486829,0.937297 -0.08556,0.03294 -0.168607,0.06905 -0.248125,0.112856 -0.23254,-0.330099 -0.556931,-0.577274 -0.926548,-0.717861 0.29387,-0.207438 0.486829,-0.541168 0.486829,-0.934166 0,-0.662441 -0.54236,-1.203759 -1.206081,-1.203759 z m 0,0.401256 c 0.446447,0 0.804055,0.356912 0.804055,0.802503 0,0.44559 -0.357608,0.802503 -0.804055,0.802503 -0.446447,0 -0.804054,-0.356913 -0.804054,-0.802503 0,-0.445591 0.357607,-0.802503 0.804054,-0.802503 z m 5.226354,0 c 0.446448,0 0.804055,0.356912 0.804055,0.802503 0,0.44559 -0.357607,0.802503 -0.804055,0.802503 -0.446447,0 -0.804054,-0.356913 -0.804054,-0.802503 0,-0.445591 0.357607,-0.802503 0.804054,-0.802503 z m -2.613176,0.601875 c 0.446447,0 0.804054,0.356912 0.804054,0.802502 0,0.445594 -0.357607,0.802506 -0.804054,0.802506 -0.468964,0.007 -0.802341,-0.351059 -0.804055,-0.802506 0,-0.44559 0.357607,-0.802502 0.804055,-0.802502 z"
       fill="#000000"
       fill-opacity="1"
       stroke="none"
       marker="none"
       visibility="visible"
       display="inline"
       overflow="visible"
       id="path1822" /></g></svg>
